<mxfile host="Electron" modified="2024-04-15T21:01:46.300Z" agent="Mozilla/5.0 (Windows NT 10.0; Win64; x64) AppleWebKit/537.36 (KHTML, like Gecko) draw.io/24.2.5 Chrome/120.0.6099.109 Electron/28.1.0 Safari/537.36" etag="8rcL6c-eR1NysKyfYh06" version="24.2.5" type="device">
  <diagram name="ページ1" id="LE8fIzdrHe0wcv1LTvfw">
    <mxGraphModel dx="1732" dy="1036" grid="1" gridSize="10" guides="1" tooltips="1" connect="1" arrows="1" fold="1" page="1" pageScale="1" pageWidth="1600" pageHeight="1200" math="0" shadow="0">
      <root>
        <mxCell id="0" />
        <mxCell id="cFaB45KztUIKXS-_cTrr-4" value="背景" style="locked=1;" parent="0" visible="0" />
        <mxCell id="cFaB45KztUIKXS-_cTrr-5" value="" style="rounded=0;whiteSpace=wrap;html=1;strokeWidth=3;" parent="cFaB45KztUIKXS-_cTrr-4" vertex="1">
          <mxGeometry x="1" y="1" width="1595" height="1180" as="geometry" />
        </mxCell>
        <mxCell id="cFaB45KztUIKXS-_cTrr-6" value="" style="rounded=0;whiteSpace=wrap;html=1;fillColor=#B3B3B3;fontColor=#333333;strokeColor=#666666;" parent="cFaB45KztUIKXS-_cTrr-4" vertex="1">
          <mxGeometry width="1595" height="60" as="geometry" />
        </mxCell>
        <mxCell id="cFaB45KztUIKXS-_cTrr-7" value="&lt;font style=&quot;font-size: 48px;&quot;&gt;×&lt;/font&gt;" style="rounded=0;whiteSpace=wrap;html=1;" parent="cFaB45KztUIKXS-_cTrr-4" vertex="1">
          <mxGeometry x="1550" y="10" width="40" height="40" as="geometry" />
        </mxCell>
        <mxCell id="cFaB45KztUIKXS-_cTrr-8" value="" style="rounded=0;whiteSpace=wrap;html=1;" parent="cFaB45KztUIKXS-_cTrr-4" vertex="1">
          <mxGeometry x="830" y="670" width="120" height="60" as="geometry" />
        </mxCell>
        <mxCell id="cFaB45KztUIKXS-_cTrr-9" value="ウインドウ" style="locked=1;" parent="0" />
        <mxCell id="cFaB45KztUIKXS-_cTrr-10" value="" style="rounded=0;whiteSpace=wrap;html=1;strokeWidth=3;" parent="cFaB45KztUIKXS-_cTrr-9" vertex="1">
          <mxGeometry x="1" y="1" width="1595" height="2009" as="geometry" />
        </mxCell>
        <mxCell id="cFaB45KztUIKXS-_cTrr-11" value="" style="rounded=0;whiteSpace=wrap;html=1;fillColor=#B3B3B3;fontColor=#333333;strokeColor=#666666;" parent="cFaB45KztUIKXS-_cTrr-9" vertex="1">
          <mxGeometry width="1595" height="60" as="geometry" />
        </mxCell>
        <mxCell id="cFaB45KztUIKXS-_cTrr-12" value="&lt;font style=&quot;font-size: 48px;&quot;&gt;×&lt;/font&gt;" style="rounded=0;whiteSpace=wrap;html=1;" parent="cFaB45KztUIKXS-_cTrr-9" vertex="1">
          <mxGeometry x="1550" y="10" width="40" height="40" as="geometry" />
        </mxCell>
        <mxCell id="cFaB45KztUIKXS-_cTrr-14" value="名称未設定レイヤ" style="" parent="0" />
        <mxCell id="bMRDDl92_SAq192Mb1gc-16" value="&lt;span style=&quot;font-size: 30px;&quot;&gt;&lt;b&gt;一般項目編集&lt;/b&gt;&lt;/span&gt;" style="rounded=0;whiteSpace=wrap;html=1;align=left;dashed=1;dashPattern=8 8;verticalAlign=bottom;" parent="cFaB45KztUIKXS-_cTrr-14" vertex="1">
          <mxGeometry x="40" y="67" width="890" height="46" as="geometry" />
        </mxCell>
        <mxCell id="Fa45Nr03g6_gKb-Np0pS-40" value="&lt;span style=&quot;font-size: 30px;&quot;&gt;送信&lt;/span&gt;" style="rounded=1;whiteSpace=wrap;html=1;" parent="cFaB45KztUIKXS-_cTrr-14" vertex="1">
          <mxGeometry x="1343" y="1920" width="210" height="60" as="geometry" />
        </mxCell>
        <mxCell id="Fa45Nr03g6_gKb-Np0pS-41" value="&lt;span style=&quot;font-size: 30px;&quot;&gt;キャンセル&lt;/span&gt;" style="rounded=1;whiteSpace=wrap;html=1;" parent="cFaB45KztUIKXS-_cTrr-14" vertex="1">
          <mxGeometry x="1093" y="1920" width="210" height="60" as="geometry" />
        </mxCell>
        <mxCell id="XZsCHV46CuvfbaxK355b-0" value="&lt;span style=&quot;font-size: 30px;&quot;&gt;事業コード&lt;/span&gt;" style="rounded=0;whiteSpace=wrap;html=1;align=right;dashed=1;dashPattern=8 8;verticalAlign=bottom;" parent="cFaB45KztUIKXS-_cTrr-14" vertex="1">
          <mxGeometry x="88" y="819" width="310" height="46" as="geometry" />
        </mxCell>
        <mxCell id="XZsCHV46CuvfbaxK355b-1" value="&lt;span style=&quot;font-size: 30px;&quot;&gt;23456&lt;/span&gt;" style="rounded=0;whiteSpace=wrap;html=1;align=left;fillColor=#CCCCCC;" parent="cFaB45KztUIKXS-_cTrr-14" vertex="1">
          <mxGeometry x="418" y="821" width="550" height="48" as="geometry" />
        </mxCell>
        <mxCell id="XZsCHV46CuvfbaxK355b-2" value="&lt;span style=&quot;font-size: 30px;&quot;&gt;項目名称&lt;/span&gt;" style="rounded=0;whiteSpace=wrap;html=1;align=right;dashed=1;dashPattern=8 8;verticalAlign=bottom;" parent="cFaB45KztUIKXS-_cTrr-14" vertex="1">
          <mxGeometry x="88" y="1049" width="310" height="46" as="geometry" />
        </mxCell>
        <mxCell id="XZsCHV46CuvfbaxK355b-3" value="&lt;span style=&quot;font-size: 30px;&quot;&gt;県政報告会の匿名寄付&lt;/span&gt;" style="rounded=0;whiteSpace=wrap;html=1;align=left;" parent="cFaB45KztUIKXS-_cTrr-14" vertex="1">
          <mxGeometry x="418" y="1051" width="550" height="48" as="geometry" />
        </mxCell>
        <mxCell id="XZsCHV46CuvfbaxK355b-6" value="&lt;span style=&quot;font-size: 30px;&quot;&gt;表示状態&lt;/span&gt;" style="rounded=0;whiteSpace=wrap;html=1;align=right;dashed=1;dashPattern=8 8;verticalAlign=bottom;" parent="cFaB45KztUIKXS-_cTrr-14" vertex="1">
          <mxGeometry x="88" y="895" width="310" height="46" as="geometry" />
        </mxCell>
        <mxCell id="XZsCHV46CuvfbaxK355b-7" value="&lt;span style=&quot;font-size: 30px;&quot;&gt;県政報告会の匿名寄付&lt;/span&gt;" style="rounded=0;whiteSpace=wrap;html=1;align=left;fillColor=#CCCCCC;" parent="cFaB45KztUIKXS-_cTrr-14" vertex="1">
          <mxGeometry x="418" y="897" width="552" height="48" as="geometry" />
        </mxCell>
        <mxCell id="XZsCHV46CuvfbaxK355b-8" value="" style="childLayout=tableLayout;recursiveResize=0;shadow=0;fillColor=default;align=left;" parent="cFaB45KztUIKXS-_cTrr-14" vertex="1">
          <mxGeometry x="40" y="148" width="1050" height="461" as="geometry" />
        </mxCell>
        <mxCell id="XZsCHV46CuvfbaxK355b-9" value="" style="shape=tableRow;horizontal=0;startSize=0;swimlaneHead=0;swimlaneBody=0;top=0;left=0;bottom=0;right=0;dropTarget=0;collapsible=0;recursiveResize=0;expand=0;fontStyle=0;fillColor=none;strokeColor=inherit;" parent="XZsCHV46CuvfbaxK355b-8" vertex="1">
          <mxGeometry width="1050" height="55" as="geometry" />
        </mxCell>
        <mxCell id="XZsCHV46CuvfbaxK355b-10" value="" style="connectable=0;recursiveResize=0;strokeColor=inherit;fillColor=none;align=center;whiteSpace=wrap;html=1;" parent="XZsCHV46CuvfbaxK355b-9" vertex="1">
          <mxGeometry width="80" height="55" as="geometry">
            <mxRectangle width="80" height="55" as="alternateBounds" />
          </mxGeometry>
        </mxCell>
        <mxCell id="XZsCHV46CuvfbaxK355b-12" value="&lt;span style=&quot;font-size: 30px;&quot;&gt;項目コード&lt;/span&gt;" style="connectable=0;recursiveResize=0;strokeColor=inherit;fillColor=none;align=center;whiteSpace=wrap;html=1;" parent="XZsCHV46CuvfbaxK355b-9" vertex="1">
          <mxGeometry x="80" width="210" height="55" as="geometry">
            <mxRectangle width="210" height="55" as="alternateBounds" />
          </mxGeometry>
        </mxCell>
        <mxCell id="XZsCHV46CuvfbaxK355b-14" value="&lt;font style=&quot;font-size: 30px;&quot;&gt;事業名称&lt;/font&gt;" style="connectable=0;recursiveResize=0;strokeColor=inherit;fillColor=none;align=center;whiteSpace=wrap;html=1;" parent="XZsCHV46CuvfbaxK355b-9" vertex="1">
          <mxGeometry x="290" width="540" height="55" as="geometry">
            <mxRectangle width="540" height="55" as="alternateBounds" />
          </mxGeometry>
        </mxCell>
        <mxCell id="XZsCHV46CuvfbaxK355b-17" value="" style="connectable=0;recursiveResize=0;strokeColor=inherit;fillColor=none;align=center;whiteSpace=wrap;html=1;" parent="XZsCHV46CuvfbaxK355b-9" vertex="1">
          <mxGeometry x="830" width="220" height="55" as="geometry">
            <mxRectangle width="220" height="55" as="alternateBounds" />
          </mxGeometry>
        </mxCell>
        <mxCell id="XZsCHV46CuvfbaxK355b-19" style="shape=tableRow;horizontal=0;startSize=0;swimlaneHead=0;swimlaneBody=0;top=0;left=0;bottom=0;right=0;dropTarget=0;collapsible=0;recursiveResize=0;expand=0;fontStyle=0;fillColor=none;strokeColor=inherit;" parent="XZsCHV46CuvfbaxK355b-8" vertex="1">
          <mxGeometry y="55" width="1050" height="126" as="geometry" />
        </mxCell>
        <mxCell id="XZsCHV46CuvfbaxK355b-20" value="" style="connectable=0;recursiveResize=0;strokeColor=inherit;fillColor=none;align=left;whiteSpace=wrap;html=1;" parent="XZsCHV46CuvfbaxK355b-19" vertex="1">
          <mxGeometry width="80" height="126" as="geometry">
            <mxRectangle width="80" height="126" as="alternateBounds" />
          </mxGeometry>
        </mxCell>
        <mxCell id="XZsCHV46CuvfbaxK355b-22" value="&lt;font style=&quot;font-size: 30px;&quot;&gt;12345&lt;/font&gt;" style="connectable=0;recursiveResize=0;strokeColor=inherit;fillColor=none;align=right;whiteSpace=wrap;html=1;" parent="XZsCHV46CuvfbaxK355b-19" vertex="1">
          <mxGeometry x="80" width="210" height="126" as="geometry">
            <mxRectangle width="210" height="126" as="alternateBounds" />
          </mxGeometry>
        </mxCell>
        <mxCell id="XZsCHV46CuvfbaxK355b-24" value="&lt;font style=&quot;font-size: 30px;&quot;&gt;強欲　実さんからの借入金&lt;/font&gt;" style="connectable=0;recursiveResize=0;strokeColor=inherit;fillColor=none;align=left;whiteSpace=wrap;html=1;" parent="XZsCHV46CuvfbaxK355b-19" vertex="1">
          <mxGeometry x="290" width="540" height="126" as="geometry">
            <mxRectangle width="540" height="126" as="alternateBounds" />
          </mxGeometry>
        </mxCell>
        <mxCell id="XZsCHV46CuvfbaxK355b-27" style="connectable=0;recursiveResize=0;strokeColor=inherit;fillColor=none;align=center;whiteSpace=wrap;html=1;" parent="XZsCHV46CuvfbaxK355b-19" vertex="1">
          <mxGeometry x="830" width="220" height="126" as="geometry">
            <mxRectangle width="220" height="126" as="alternateBounds" />
          </mxGeometry>
        </mxCell>
        <mxCell id="XZsCHV46CuvfbaxK355b-29" style="shape=tableRow;horizontal=0;startSize=0;swimlaneHead=0;swimlaneBody=0;top=0;left=0;bottom=0;right=0;dropTarget=0;collapsible=0;recursiveResize=0;expand=0;fontStyle=0;fillColor=none;strokeColor=inherit;" parent="XZsCHV46CuvfbaxK355b-8" vertex="1">
          <mxGeometry y="181" width="1050" height="140" as="geometry" />
        </mxCell>
        <mxCell id="XZsCHV46CuvfbaxK355b-30" value="" style="connectable=0;recursiveResize=0;strokeColor=inherit;fillColor=none;align=left;whiteSpace=wrap;html=1;" parent="XZsCHV46CuvfbaxK355b-29" vertex="1">
          <mxGeometry width="80" height="140" as="geometry">
            <mxRectangle width="80" height="140" as="alternateBounds" />
          </mxGeometry>
        </mxCell>
        <mxCell id="XZsCHV46CuvfbaxK355b-32" value="&lt;font style=&quot;font-size: 30px;&quot;&gt;23456&lt;/font&gt;" style="connectable=0;recursiveResize=0;strokeColor=inherit;fillColor=none;align=right;whiteSpace=wrap;html=1;" parent="XZsCHV46CuvfbaxK355b-29" vertex="1">
          <mxGeometry x="80" width="210" height="140" as="geometry">
            <mxRectangle width="210" height="140" as="alternateBounds" />
          </mxGeometry>
        </mxCell>
        <mxCell id="XZsCHV46CuvfbaxK355b-34" value="&lt;span style=&quot;font-size: 30px;&quot;&gt;県政報告会の匿名寄付&lt;/span&gt;" style="connectable=0;recursiveResize=0;strokeColor=inherit;fillColor=none;align=left;whiteSpace=wrap;html=1;" parent="XZsCHV46CuvfbaxK355b-29" vertex="1">
          <mxGeometry x="290" width="540" height="140" as="geometry">
            <mxRectangle width="540" height="140" as="alternateBounds" />
          </mxGeometry>
        </mxCell>
        <mxCell id="XZsCHV46CuvfbaxK355b-37" style="connectable=0;recursiveResize=0;strokeColor=inherit;fillColor=none;align=center;whiteSpace=wrap;html=1;" parent="XZsCHV46CuvfbaxK355b-29" vertex="1">
          <mxGeometry x="830" width="220" height="140" as="geometry">
            <mxRectangle width="220" height="140" as="alternateBounds" />
          </mxGeometry>
        </mxCell>
        <mxCell id="XZsCHV46CuvfbaxK355b-39" style="shape=tableRow;horizontal=0;startSize=0;swimlaneHead=0;swimlaneBody=0;top=0;left=0;bottom=0;right=0;dropTarget=0;collapsible=0;recursiveResize=0;expand=0;fontStyle=0;fillColor=none;strokeColor=inherit;" parent="XZsCHV46CuvfbaxK355b-8" vertex="1">
          <mxGeometry y="321" width="1050" height="140" as="geometry" />
        </mxCell>
        <mxCell id="XZsCHV46CuvfbaxK355b-40" style="connectable=0;recursiveResize=0;strokeColor=inherit;fillColor=none;align=left;whiteSpace=wrap;html=1;" parent="XZsCHV46CuvfbaxK355b-39" vertex="1">
          <mxGeometry width="80" height="140" as="geometry">
            <mxRectangle width="80" height="140" as="alternateBounds" />
          </mxGeometry>
        </mxCell>
        <mxCell id="XZsCHV46CuvfbaxK355b-42" value="&lt;font style=&quot;font-size: 30px;&quot;&gt;34567&lt;/font&gt;" style="connectable=0;recursiveResize=0;strokeColor=inherit;fillColor=none;align=right;whiteSpace=wrap;html=1;" parent="XZsCHV46CuvfbaxK355b-39" vertex="1">
          <mxGeometry x="80" width="210" height="140" as="geometry">
            <mxRectangle width="210" height="140" as="alternateBounds" />
          </mxGeometry>
        </mxCell>
        <mxCell id="XZsCHV46CuvfbaxK355b-44" value="&lt;span style=&quot;font-size: 30px;&quot;&gt;その他&lt;/span&gt;" style="connectable=0;recursiveResize=0;strokeColor=inherit;fillColor=none;align=left;whiteSpace=wrap;html=1;" parent="XZsCHV46CuvfbaxK355b-39" vertex="1">
          <mxGeometry x="290" width="540" height="140" as="geometry">
            <mxRectangle width="540" height="140" as="alternateBounds" />
          </mxGeometry>
        </mxCell>
        <mxCell id="XZsCHV46CuvfbaxK355b-47" style="connectable=0;recursiveResize=0;strokeColor=inherit;fillColor=none;align=center;whiteSpace=wrap;html=1;" parent="XZsCHV46CuvfbaxK355b-39" vertex="1">
          <mxGeometry x="830" width="220" height="140" as="geometry">
            <mxRectangle width="220" height="140" as="alternateBounds" />
          </mxGeometry>
        </mxCell>
        <mxCell id="XZsCHV46CuvfbaxK355b-61" value="&lt;font style=&quot;font-size: 84px;&quot;&gt;○&lt;/font&gt;" style="text;html=1;strokeColor=none;fillColor=none;align=center;verticalAlign=middle;whiteSpace=wrap;rounded=0;fontSize=60;" parent="cFaB45KztUIKXS-_cTrr-14" vertex="1">
          <mxGeometry x="44" y="249" width="60" height="30" as="geometry" />
        </mxCell>
        <mxCell id="XZsCHV46CuvfbaxK355b-62" value="&lt;font style=&quot;font-size: 84px;&quot;&gt;○&lt;/font&gt;" style="text;html=1;strokeColor=none;fillColor=none;align=center;verticalAlign=middle;whiteSpace=wrap;rounded=0;fontSize=60;" parent="cFaB45KztUIKXS-_cTrr-14" vertex="1">
          <mxGeometry x="45" y="378" width="60" height="30" as="geometry" />
        </mxCell>
        <mxCell id="XZsCHV46CuvfbaxK355b-63" value="&lt;font style=&quot;font-size: 48px;&quot;&gt;●&lt;/font&gt;" style="text;html=1;strokeColor=none;fillColor=none;align=center;verticalAlign=middle;whiteSpace=wrap;rounded=0;fontSize=48;" parent="cFaB45KztUIKXS-_cTrr-14" vertex="1">
          <mxGeometry x="45" y="380" width="60" height="30" as="geometry" />
        </mxCell>
        <mxCell id="XZsCHV46CuvfbaxK355b-64" value="&lt;span style=&quot;font-size: 30px;&quot;&gt;削除&lt;/span&gt;" style="rounded=1;whiteSpace=wrap;html=1;fillColor=#FFFFFF;strokeWidth=3;" parent="cFaB45KztUIKXS-_cTrr-14" vertex="1">
          <mxGeometry x="907" y="235" width="154" height="60" as="geometry" />
        </mxCell>
        <mxCell id="XZsCHV46CuvfbaxK355b-67" value="&lt;span style=&quot;font-size: 30px;&quot;&gt;削除&lt;/span&gt;" style="rounded=1;whiteSpace=wrap;html=1;fillColor=#FFFFFF;strokeWidth=3;" parent="cFaB45KztUIKXS-_cTrr-14" vertex="1">
          <mxGeometry x="906" y="365" width="154" height="60" as="geometry" />
        </mxCell>
        <mxCell id="XZsCHV46CuvfbaxK355b-70" value="&lt;font style=&quot;font-size: 84px;&quot;&gt;○&lt;/font&gt;" style="text;html=1;strokeColor=none;fillColor=none;align=center;verticalAlign=middle;whiteSpace=wrap;rounded=0;fontSize=60;" parent="cFaB45KztUIKXS-_cTrr-14" vertex="1">
          <mxGeometry x="44" y="519" width="60" height="30" as="geometry" />
        </mxCell>
        <mxCell id="XZsCHV46CuvfbaxK355b-75" value="&lt;span style=&quot;font-size: 30px;&quot;&gt;削除&lt;/span&gt;" style="rounded=1;whiteSpace=wrap;html=1;fillColor=#FFFFFF;strokeWidth=3;" parent="cFaB45KztUIKXS-_cTrr-14" vertex="1">
          <mxGeometry x="906" y="505" width="154" height="60" as="geometry" />
        </mxCell>
        <mxCell id="XZsCHV46CuvfbaxK355b-78" value="&lt;span style=&quot;font-size: 30px;&quot;&gt;新しい行追加&lt;/span&gt;" style="rounded=1;whiteSpace=wrap;html=1;fillColor=#FFFFFF;strokeWidth=3;" parent="cFaB45KztUIKXS-_cTrr-14" vertex="1">
          <mxGeometry x="38" y="635" width="422" height="60" as="geometry" />
        </mxCell>
        <mxCell id="iCmK_zi1mnz3eJUZ56AB-0" value="&lt;span style=&quot;font-size: 30px;&quot;&gt;収支報告書に記載される情報&lt;/span&gt;" style="rounded=0;whiteSpace=wrap;html=1;align=left;dashed=1;dashPattern=8 8;verticalAlign=bottom;" parent="cFaB45KztUIKXS-_cTrr-14" vertex="1">
          <mxGeometry x="26" y="730" width="657" height="46" as="geometry" />
        </mxCell>
        <mxCell id="iCmK_zi1mnz3eJUZ56AB-1" value="&lt;span style=&quot;font-size: 30px;&quot;&gt;下記の情報をもとに呼び出します&lt;/span&gt;" style="rounded=0;whiteSpace=wrap;html=1;align=left;dashed=1;dashPattern=8 8;verticalAlign=bottom;" parent="cFaB45KztUIKXS-_cTrr-14" vertex="1">
          <mxGeometry x="15" y="974" width="657" height="46" as="geometry" />
        </mxCell>
        <mxCell id="iCmK_zi1mnz3eJUZ56AB-2" value="&lt;span style=&quot;font-size: 30px;&quot;&gt;摘要&lt;/span&gt;" style="rounded=0;whiteSpace=wrap;html=1;align=right;dashed=1;dashPattern=8 8;verticalAlign=bottom;" parent="cFaB45KztUIKXS-_cTrr-14" vertex="1">
          <mxGeometry x="237" y="1119" width="160" height="46" as="geometry" />
        </mxCell>
        <mxCell id="iCmK_zi1mnz3eJUZ56AB-3" value="&lt;span style=&quot;font-size: 30px;&quot;&gt;ﾌﾘｺﾐ ｾｲｼﾞﾀﾞﾝﾀｲ ｻﾌﾞﾛｳ&lt;/span&gt;" style="rounded=0;whiteSpace=wrap;html=1;align=left;" parent="cFaB45KztUIKXS-_cTrr-14" vertex="1">
          <mxGeometry x="417" y="1117" width="340" height="48" as="geometry" />
        </mxCell>
        <mxCell id="iCmK_zi1mnz3eJUZ56AB-4" value="&lt;span style=&quot;font-size: 30px;&quot;&gt;金融機関&lt;/span&gt;" style="rounded=0;whiteSpace=wrap;html=1;align=right;dashed=1;dashPattern=8 8;verticalAlign=bottom;" parent="cFaB45KztUIKXS-_cTrr-14" vertex="1">
          <mxGeometry x="223" y="1186" width="170" height="46" as="geometry" />
        </mxCell>
        <mxCell id="iCmK_zi1mnz3eJUZ56AB-5" value="&lt;span style=&quot;font-size: 30px;&quot;&gt;1233&lt;/span&gt;" style="rounded=0;whiteSpace=wrap;html=1;align=right;" parent="cFaB45KztUIKXS-_cTrr-14" vertex="1">
          <mxGeometry x="413" y="1184" width="190" height="48" as="geometry" />
        </mxCell>
        <mxCell id="iCmK_zi1mnz3eJUZ56AB-6" value="&lt;span style=&quot;font-size: 30px;&quot;&gt;首都圏信用金庫&lt;/span&gt;" style="rounded=0;whiteSpace=wrap;html=1;align=left;" parent="cFaB45KztUIKXS-_cTrr-14" vertex="1">
          <mxGeometry x="643" y="1184" width="420" height="48" as="geometry" />
        </mxCell>
        <mxCell id="iCmK_zi1mnz3eJUZ56AB-7" value="&lt;span style=&quot;font-size: 30px;&quot;&gt;支店&lt;/span&gt;" style="rounded=0;whiteSpace=wrap;html=1;align=right;dashed=1;dashPattern=8 8;verticalAlign=bottom;" parent="cFaB45KztUIKXS-_cTrr-14" vertex="1">
          <mxGeometry x="223" y="1256" width="170" height="46" as="geometry" />
        </mxCell>
        <mxCell id="iCmK_zi1mnz3eJUZ56AB-8" value="&lt;span style=&quot;font-size: 30px;&quot;&gt;987&lt;/span&gt;" style="rounded=0;whiteSpace=wrap;html=1;align=right;" parent="cFaB45KztUIKXS-_cTrr-14" vertex="1">
          <mxGeometry x="413" y="1254" width="190" height="48" as="geometry" />
        </mxCell>
        <mxCell id="iCmK_zi1mnz3eJUZ56AB-9" value="&lt;span style=&quot;font-size: 30px;&quot;&gt;本店&lt;/span&gt;" style="rounded=0;whiteSpace=wrap;html=1;align=left;" parent="cFaB45KztUIKXS-_cTrr-14" vertex="1">
          <mxGeometry x="643" y="1254" width="420" height="48" as="geometry" />
        </mxCell>
        <mxCell id="iCmK_zi1mnz3eJUZ56AB-10" value="&lt;span style=&quot;font-size: 30px;&quot;&gt;口座種別&lt;/span&gt;" style="rounded=0;whiteSpace=wrap;html=1;align=right;dashed=1;dashPattern=8 8;verticalAlign=bottom;" parent="cFaB45KztUIKXS-_cTrr-14" vertex="1">
          <mxGeometry x="223" y="1326" width="170" height="46" as="geometry" />
        </mxCell>
        <mxCell id="iCmK_zi1mnz3eJUZ56AB-11" value="&lt;span style=&quot;font-size: 30px;&quot;&gt;▼1普通口座&lt;/span&gt;" style="rounded=0;whiteSpace=wrap;html=1;align=left;" parent="cFaB45KztUIKXS-_cTrr-14" vertex="1">
          <mxGeometry x="413" y="1324" width="190" height="48" as="geometry" />
        </mxCell>
        <mxCell id="iCmK_zi1mnz3eJUZ56AB-12" value="&lt;span style=&quot;font-size: 30px;&quot;&gt;口座番号&lt;/span&gt;" style="rounded=0;whiteSpace=wrap;html=1;align=right;dashed=1;dashPattern=8 8;verticalAlign=bottom;" parent="cFaB45KztUIKXS-_cTrr-14" vertex="1">
          <mxGeometry x="222" y="1391" width="170" height="46" as="geometry" />
        </mxCell>
        <mxCell id="iCmK_zi1mnz3eJUZ56AB-13" value="&lt;span style=&quot;font-size: 30px;&quot;&gt;7654321&lt;/span&gt;" style="rounded=0;whiteSpace=wrap;html=1;align=right;" parent="cFaB45KztUIKXS-_cTrr-14" vertex="1">
          <mxGeometry x="412" y="1389" width="641" height="48" as="geometry" />
        </mxCell>
        <mxCell id="iCmK_zi1mnz3eJUZ56AB-14" value="&lt;span style=&quot;font-size: 30px;&quot;&gt;口座名義人&lt;/span&gt;" style="rounded=0;whiteSpace=wrap;html=1;align=right;dashed=1;dashPattern=8 8;verticalAlign=bottom;" parent="cFaB45KztUIKXS-_cTrr-14" vertex="1">
          <mxGeometry x="222" y="1461" width="170" height="46" as="geometry" />
        </mxCell>
        <mxCell id="iCmK_zi1mnz3eJUZ56AB-15" value="&lt;span style=&quot;font-size: 30px;&quot;&gt;ｾｲｼﾞﾀﾞﾝﾀｲ ｻﾌﾞﾛｳ&lt;/span&gt;" style="rounded=0;whiteSpace=wrap;html=1;align=left;" parent="cFaB45KztUIKXS-_cTrr-14" vertex="1">
          <mxGeometry x="412" y="1459" width="641" height="48" as="geometry" />
        </mxCell>
      </root>
    </mxGraphModel>
  </diagram>
</mxfile>
